<svg width="120" height="36" viewBox="0 0 120 36" fill="none" xmlns="http://www.w3.org/2000/svg">
<path d="M92.378 18.7708H89.8489V12.316C89.8489 8.78617 92.7189 5.916 96.2488 5.916C97.5354 5.916 98.767 6.29005 99.8226 7.00468L98.4041 9.10507C97.764 8.67388 97.0096 8.44406 96.2378 8.44519C94.1045 8.44519 92.3671 10.1826 92.3671 12.316V18.7708H92.378ZM13.4899 18.7048C9.96013 18.7048 7.09009 15.8348 7.09009 12.305C7.09009 8.77519 9.96 5.90502 13.4898 5.90502C15.821 5.90502 17.9654 7.16962 19.087 9.21498L16.8767 10.4355C16.195 9.204 14.8974 8.43422 13.4899 8.43422C11.3565 8.43422 9.61902 10.1717 9.61902 12.3049C9.61902 14.4383 11.3565 16.1757 13.4898 16.1757C14.8643 16.1757 16.1069 15.472 16.8107 14.2843L18.988 15.5819C17.8334 17.5062 15.7332 18.7048 13.4899 18.7048ZM26.0699 18.7048C22.54 18.7048 19.6699 15.8348 19.6699 12.305C19.6699 8.77519 22.54 5.90502 26.0699 5.90502C29.5997 5.90502 32.4697 8.77519 32.4697 12.305C32.4697 15.8348 29.5997 18.7048 26.0699 18.7048ZM26.0699 8.43422C23.9366 8.43422 22.1991 10.1717 22.1991 12.3049C22.1991 14.4383 23.9366 16.1757 26.0699 16.1757C28.2031 16.1757 29.9405 14.4383 29.9405 12.305C29.9405 10.1717 28.2031 8.43422 26.0699 8.43422ZM54.0226 18.7048C50.4928 18.7048 47.6228 15.8348 47.6228 12.305C47.6228 8.77519 50.4928 5.90502 54.0226 5.90502C57.5525 5.90502 60.4226 8.77519 60.4226 12.305C60.4226 15.8348 57.5525 18.7048 54.0226 18.7048ZM54.0226 8.43422C51.8894 8.43422 50.152 10.1717 50.152 12.3049C50.152 14.4383 51.8894 16.1757 54.0226 16.1757C56.1559 16.1757 57.8934 14.4383 57.8934 12.305C57.8934 10.1717 56.1559 8.43422 54.0226 8.43422ZM81.8875 18.7048C78.3577 18.7048 75.4877 15.8348 75.4877 12.305C75.4877 8.77519 78.3577 5.90502 81.8875 5.90502C85.4174 5.90502 88.2875 8.77519 88.2875 12.305C88.2765 15.8348 85.4063 18.7048 81.8875 18.7048ZM81.8875 8.43422C79.7542 8.43422 78.0167 10.1717 78.0167 12.3049C78.0167 14.4383 79.7542 16.1757 81.8875 16.1757C84.0208 16.1757 85.7583 14.4383 85.7583 12.305C85.7583 10.1717 84.0208 8.43422 81.8875 8.43422ZM67.933 5.90502C64.4032 5.90502 61.5332 8.77519 61.5332 12.305V21.7289H64.0624V17.3963C65.14 18.221 66.4815 18.7048 67.933 18.7048C71.4629 18.7048 74.333 15.8348 74.333 12.305C74.333 8.77519 71.4629 5.90502 67.933 5.90502ZM67.933 16.1757C65.7998 16.1757 64.0624 14.4383 64.0624 12.305C64.0624 10.1717 65.7998 8.43434 67.933 8.43434C70.0663 8.43434 71.8038 10.1717 71.8038 12.305C71.8038 14.4383 70.0663 16.1757 67.933 16.1757ZM108.521 6.86171H103.583V3.73877H101.054V18.7708H103.583V9.3909H108.521V6.86171ZM46.9409 6.10302C46.4022 5.56417 45.5554 5.80609 45.0826 6.27894C44.8297 6.53183 44.5768 7.03775 44.3569 7.55451C43.1362 6.45485 41.5088 5.81707 39.7384 5.89404C36.2085 6.05898 33.4704 9.072 33.6354 12.6128C33.8003 16.1427 36.8133 18.8809 40.3541 18.7159C43.884 18.5509 46.622 15.538 46.4571 11.9971C46.4036 10.8303 46.0308 9.70067 45.3795 8.73115C45.9403 8.50022 46.4902 8.23634 46.765 7.96136C47.2269 7.48851 47.4798 6.64187 46.9409 6.10302ZM40.2332 16.1757C38.0999 16.2747 36.2745 14.6252 36.1755 12.4809C36.0766 10.3477 37.726 8.52217 39.8703 8.42324C42.0036 8.3243 43.829 9.97366 43.9279 12.118C44.027 14.2513 42.3665 16.0767 40.2332 16.1757ZM45.9073 19.0458C45.6544 18.7379 45.2585 18.9028 44.9946 19.1118C44.6427 19.3866 44.2909 19.6505 43.9169 19.8814C43.1692 20.3433 42.3444 20.7063 41.4647 20.8602C40.6291 21.0031 39.4634 21.0031 38.6277 20.8602C37.748 20.7063 36.9232 20.3543 36.1755 19.8814C35.8016 19.6505 35.4498 19.3866 35.0978 19.1118C34.834 18.9028 34.4381 18.7489 34.1852 19.0458C33.7014 19.6286 34.0093 20.5413 34.3611 21.1021C34.823 21.8279 35.6257 22.3117 36.3734 22.6966C36.3844 22.7076 36.4065 22.7076 36.4174 22.7186C37.5281 23.2794 38.6607 23.4883 40.0463 23.4883C41.4318 23.4883 42.5644 23.2794 43.675 22.7186C43.686 22.7076 43.7081 22.7076 43.7191 22.6966C44.4668 22.3117 45.2695 21.8279 45.7314 21.1021C46.0943 20.5413 46.3911 19.6286 45.9073 19.0458ZM109.807 2.56213C109.807 2.56213 110.423 2.55115 110.731 2.56213C111.105 2.57311 111.413 2.90298 111.391 3.27702C111.38 3.56285 111.226 3.78281 110.94 3.90383C111.072 4.21162 111.347 4.8383 111.347 4.8383H110.907L110.544 3.95873H110.214V4.84941H109.818V2.56213H109.807ZM110.203 3.56285H110.731C110.885 3.55188 110.995 3.41988 111.006 3.2769C111.006 3.10098 110.874 2.96898 110.698 2.958H110.214L110.203 3.56285Z" fill="#EC3926"/>
<path d="M112.479 3.72765C112.479 4.81646 111.6 5.69617 110.511 5.69617C109.423 5.69617 108.543 4.81646 108.543 3.72765C108.543 2.6391 109.423 1.7594 110.511 1.7594C111.6 1.7594 112.479 2.628 112.479 3.72765ZM110.511 2.16638C109.653 2.16638 108.95 2.85906 108.95 3.72765C108.95 4.59651 109.642 5.27821 110.511 5.27821C111.369 5.27821 112.073 4.58553 112.073 3.7168C112.073 2.84808 111.369 2.16638 110.511 2.16638Z" fill="#EC3926"/>
<path d="M13.7978 30.0312V32.6593C13.2809 33.0661 12.2694 33.4291 11.4116 33.4291C9.76227 33.4291 8.43167 32.3623 8.43167 30.559C8.43167 28.7446 9.75116 27.6669 11.4116 27.6669C12.3133 27.6669 13.0281 27.9748 13.5889 28.4257L13.0501 29.3054C12.6102 28.9425 12.0935 28.7336 11.4336 28.7336C10.411 28.7336 9.61916 29.3934 9.61916 30.5479C9.61916 31.6916 10.4109 32.3514 11.4776 32.3514C11.9174 32.3514 12.3354 32.2414 12.6432 32.0544V31.0208H11.1697V30.0202H13.7978V30.0312ZM16.0741 27.491V31.9776C16.0741 32.2744 16.1841 32.4503 16.426 32.4503C16.5909 32.4503 16.7339 32.3954 16.8878 32.3184L16.9427 33.2311C16.7449 33.308 16.3709 33.4181 15.9751 33.4181C15.3373 33.4181 14.9195 33.1102 14.9195 32.2524V27.491H16.0741ZM19.8129 28.9205C21.1655 28.9205 22.1331 29.8882 22.1331 31.1968C22.1331 32.4943 21.1655 33.451 19.8129 33.451C18.4823 33.451 17.5035 32.4834 17.5035 31.1968C17.5035 29.8882 18.4713 28.9205 19.8129 28.9205ZM19.8129 32.3954C20.5386 32.3954 21.0225 31.8675 21.0225 31.1968C21.0225 30.504 20.5386 29.9652 19.8129 29.9652C19.1091 29.9652 18.6143 30.504 18.6143 31.1968C18.6143 31.8785 19.0981 32.3954 19.8129 32.3954ZM25.63 33.4181C25.0472 33.4181 24.6292 33.242 24.3324 32.9452V33.3301H23.1778V27.491H24.3324V29.3934C24.6292 29.1295 25.0692 28.9534 25.63 28.9534C26.8395 28.9534 27.6532 29.8772 27.6532 31.1747C27.6532 32.4834 26.8395 33.4181 25.63 33.4181ZM25.3001 29.9652C24.9152 29.9652 24.5523 30.1411 24.3324 30.372V32.0215C24.5303 32.2195 24.9042 32.4174 25.3001 32.4174C26.0039 32.4174 26.4656 31.9226 26.4656 31.1858C26.4767 30.449 26.0149 29.9652 25.3001 29.9652ZM32.8985 32.0105C32.8985 32.2524 32.9645 32.4503 33.1955 32.4503C33.3604 32.4503 33.4924 32.3954 33.6354 32.3184L33.6793 33.2311C33.4704 33.3301 33.1075 33.4181 32.7446 33.4181C32.2607 33.4181 31.9529 33.2201 31.8319 32.7913C31.6622 32.9858 31.4525 33.1414 31.2172 33.2477C30.982 33.354 30.7266 33.4083 30.4684 33.4071C29.2698 33.4071 28.4561 32.4834 28.4561 31.1968C28.4561 29.8882 29.2698 28.9534 30.4684 28.9534C31.0292 28.9534 31.469 29.1074 31.7549 29.3934V29.0304H32.9096V32.0105H32.8985ZM31.7549 30.35C31.5571 30.1411 31.1832 29.9652 30.7873 29.9652C30.0725 29.9652 29.6216 30.46 29.6216 31.1968C29.6216 31.9226 30.0835 32.4174 30.7873 32.4174C31.1612 32.4174 31.524 32.2414 31.7549 32.0325V30.35ZM35.7027 27.491V31.9776C35.7027 32.2744 35.8126 32.4503 36.0545 32.4503C36.2195 32.4503 36.3624 32.3954 36.5164 32.3184L36.5714 33.2311C36.3734 33.308 35.9995 33.4181 35.6038 33.4181C34.9658 33.4181 34.548 33.1102 34.548 32.2524V27.491H35.7027ZM42.0476 28.8986V33.3411H40.8929V28.8986H39.0456V27.7439H43.818V28.8986H42.0476ZM44.7418 30.372C44.7418 30.1191 44.6867 29.9322 44.4448 29.9322C44.2689 29.9322 44.0709 30.0092 44.0049 30.0531L43.961 29.1514C44.0159 29.0964 44.4448 28.9646 44.8956 28.9646C45.3905 28.9646 45.7094 29.1624 45.8303 29.6133C46.0393 29.2065 46.3472 28.9646 46.908 28.9646C47.3149 28.9646 47.6228 29.1074 47.6777 29.2065L47.5127 30.2401C47.4469 30.1522 47.1169 30.0202 46.721 30.0202C46.1713 30.0202 45.9513 30.493 45.8853 30.9988V33.3411H44.7307V30.372H44.7418ZM52.6591 32.0105C52.6591 32.2524 52.7251 32.4503 52.956 32.4503C53.1209 32.4503 53.2529 32.3954 53.3958 32.3184L53.4398 33.2311C53.2309 33.3301 52.8681 33.4181 52.5051 33.4181C52.0213 33.4181 51.7134 33.2201 51.5925 32.7913C51.4227 32.9858 51.2131 33.1414 50.9778 33.2477C50.7425 33.354 50.4871 33.4083 50.2289 33.4071C49.0304 33.4071 48.2165 32.4834 48.2165 31.1968C48.2165 29.8882 49.0304 28.9534 50.2289 28.9534C50.7898 28.9534 51.2295 29.1074 51.5155 29.3934V29.0304H52.6701V32.0105H52.6591ZM51.5045 30.35C51.3065 30.1411 50.9326 29.9652 50.5369 29.9652C49.8221 29.9652 49.3712 30.46 49.3712 31.1968C49.3712 31.9226 49.8331 32.4174 50.5369 32.4174C50.9107 32.4174 51.2736 32.2414 51.5045 32.0325V30.35ZM58.5202 27.491V32.0105C58.5202 32.2634 58.5752 32.4503 58.8171 32.4503C58.949 32.4503 59.092 32.3954 59.2459 32.3184L59.3009 33.2311C59.092 33.3301 58.7181 33.4181 58.3552 33.4181C57.9044 33.4181 57.5855 33.2531 57.4536 32.8683C57.1786 33.2091 56.7167 33.4181 56.0789 33.4181C54.8804 33.4181 54.0666 32.4834 54.0666 31.1747C54.0666 29.8772 54.8913 28.9534 56.0789 28.9534C56.6288 28.9534 57.0687 29.1295 57.3766 29.3934V27.491H58.5202ZM56.4088 32.4174C56.7937 32.4174 57.1786 32.2305 57.3766 32.0325V30.361C57.1567 30.1411 56.7937 29.9652 56.4088 29.9652C55.7052 29.9652 55.2323 30.449 55.2323 31.1858C55.2323 31.9226 55.6941 32.4174 56.4088 32.4174ZM64.0734 32.8683C63.6335 33.2311 62.9957 33.451 62.2589 33.451C60.6425 33.451 59.9168 32.4614 59.9168 31.1968C59.9168 29.9103 60.8075 28.9205 62.1929 28.9205C63.5016 28.9205 64.1173 29.7232 64.1173 30.713C64.1173 30.9769 64.0734 31.3837 64.0293 31.5486H61.1043C61.2143 32.1535 61.5992 32.4834 62.303 32.4834C62.8417 32.4834 63.3476 32.2634 63.6444 32.0434L64.0734 32.8683ZM63.0178 30.515C63.0178 30.1741 62.7538 29.8772 62.171 29.8772C61.5552 29.8772 61.2253 30.2511 61.1373 30.6689H63.0066C63.0178 30.6249 63.0178 30.559 63.0178 30.515ZM67.4053 27.7439H70.0773C71.177 27.7439 72.1117 28.3817 72.1117 29.7892C72.1117 31.0538 71.177 31.8015 70.0773 31.8015H68.5598V33.3521H67.4053V27.7439ZM68.5598 28.7446V30.79H69.9014C70.4732 30.79 70.9241 30.4051 70.9241 29.7783C70.9241 29.1074 70.4732 28.7446 69.9014 28.7446H68.5598ZM74.1681 27.491V31.9776C74.1681 32.2744 74.278 32.4503 74.5199 32.4503C74.685 32.4503 74.8278 32.3954 74.9818 32.3184L75.0368 33.2311C74.8388 33.308 74.465 33.4181 74.0691 33.4181C73.4313 33.4181 73.0134 33.1102 73.0134 32.2524V27.491H74.1681ZM80.0731 32.0105C80.0731 32.2524 80.1391 32.4503 80.37 32.4503C80.535 32.4503 80.6669 32.3954 80.8099 32.3184L80.8538 33.2311C80.6449 33.3301 80.2821 33.4181 79.9191 33.4181C79.4353 33.4181 79.1274 33.2201 79.0065 32.7913C78.8367 32.9858 78.6271 33.1414 78.3918 33.2477C78.1565 33.354 77.9011 33.4083 77.643 33.4071C76.4444 33.4071 75.6305 32.4834 75.6305 31.1968C75.6305 29.8882 76.4444 28.9534 77.643 28.9534C78.2038 28.9534 78.6435 29.1074 78.9295 29.3934V29.0304H80.0841V32.0105H80.0731ZM78.9295 30.35C78.7315 30.1411 78.3577 29.9652 77.9618 29.9652C77.2471 29.9652 76.7962 30.46 76.7962 31.1968C76.7962 31.9226 77.2581 32.4174 77.9618 32.4174C78.3356 32.4174 78.6986 32.2414 78.9295 32.0325V30.35ZM83.1852 27.9419V29.0415H84.7575V29.9432H83.1852V31.6916C83.1852 32.2084 83.394 32.4283 83.7679 32.4283C84.0758 32.4283 84.4277 32.2744 84.6367 32.1204L84.9995 33.0112C84.5926 33.2641 84.0428 33.44 83.405 33.44C82.5584 33.44 82.0305 32.9232 82.0305 31.9335V29.9542H81.2607V29.0304H82.0305L82.1735 27.9309H83.1852V27.9419ZM85.5054 29.2394H86.2971V28.9425C86.2971 28.1068 86.7369 27.414 87.7815 27.414C88.2324 27.414 88.6613 27.546 88.8922 27.6559L88.6393 28.6566C88.4634 28.5466 88.1884 28.4257 87.9135 28.4257C87.5837 28.4257 87.4517 28.6236 87.4517 28.9534V29.2394H88.7492V30.1411H87.4517V33.3411H86.2971V30.1411H85.5054V29.2394ZM91.6194 28.9205C92.9719 28.9205 93.9396 29.8882 93.9396 31.1968C93.9396 32.4943 92.9719 33.451 91.6194 33.451C90.2888 33.451 89.3101 32.4834 89.3101 31.1968C89.3101 29.8882 90.2888 28.9205 91.6194 28.9205ZM91.6194 32.3954C92.3451 32.3954 92.8289 31.8675 92.8289 31.1968C92.8289 30.504 92.3451 29.9652 91.6194 29.9652C90.9156 29.9652 90.4207 30.504 90.4207 31.1968C90.4207 31.8785 90.9046 32.3954 91.6194 32.3954ZM95.3251 30.372C95.3251 30.1191 95.2702 29.9322 95.0283 29.9322C94.8522 29.9322 94.6544 30.0092 94.5884 30.0531L94.5443 29.1514C94.5993 29.0964 95.0283 28.9646 95.479 28.9646C95.9738 28.9646 96.2927 29.1624 96.4138 29.6133C96.6227 29.2065 96.9305 28.9646 97.4913 28.9646C97.8983 28.9646 98.2061 29.1074 98.2611 29.2065L98.0962 30.2401C98.0302 30.1522 97.7003 30.0202 97.3044 30.0202C96.7546 30.0202 96.5347 30.493 96.4688 30.9988V33.3411H95.3141V30.372H95.3251ZM100.24 29.0304V29.5033C100.548 29.1624 100.999 28.9425 101.593 28.9425C102.319 28.9425 102.759 29.1734 102.979 29.7123C103.264 29.2723 103.781 28.9534 104.496 28.9534C105.607 28.9534 106.069 29.7892 106.069 30.8558V32.0105C106.069 32.2524 106.124 32.4503 106.354 32.4503C106.486 32.4503 106.64 32.3954 106.794 32.3184L106.849 33.2311C106.64 33.3301 106.256 33.4181 105.904 33.4181C105.266 33.4181 104.914 33.0882 104.914 32.2854V31.0538C104.914 30.416 104.628 30.0202 104.056 30.0202C103.583 30.0202 103.286 30.3391 103.155 30.6799V33.3411H102V31.0429C102 30.416 101.725 30.0202 101.153 30.0202C100.669 30.0202 100.362 30.35 100.23 30.6909V33.3301H99.0748V29.0304H100.24ZM108.686 28.5027V30.3941H108.059V28.5027H107.289V27.8759H109.444V28.5027H108.686ZM112.304 28.8655L111.545 29.7892H111.435L110.676 28.8655V30.4051H110.049V27.8869H110.577L111.49 28.9646L112.402 27.8869H112.93V30.4051H112.304V28.8655Z" fill="black"/>
</svg>
